<svg width="70" height="70" viewBox="0 0 70 70" fill="none" xmlns="http://www.w3.org/2000/svg">
<path d="M8.95963 17.7188C3.22229 23.4661 0 31.2547 0 39.375C0 47.4953 3.22229 55.2839 8.95963 61.0313C14.9543 67.025 22.7867 70 30.6191 70C38.4515 70 46.284 67.025 52.2786 61.0313C67.5059 45.8063 70 0 70 0C70 0 24.1869 2.49375 8.95963 17.7188ZM46.1089 54.8625C41.9521 58.975 36.4825 61.25 30.6191 61.25C26.7248 61.25 23.0492 60.1562 19.7675 58.275C23.7931 45.675 31.2317 34.6063 41.1207 26.25C29.6127 32.2 19.9425 41.3875 13.2478 52.5C6.77181 43.925 7.34064 31.7188 15.1731 23.8875C22.7867 16.275 43.9211 11.5937 60.3736 9.625C58.4045 26.075 53.7226 47.2063 46.1089 54.8625Z" fill="#307797"/>
</svg>
