<svg width="80" height="74" viewBox="0 0 80 74" fill="none" xmlns="http://www.w3.org/2000/svg">
<path d="M33.6842 16.353L42.1053 28.706L33.6842 41.0589H21.0526L12.6316 28.706L21.0526 16.353H33.6842Z" stroke="#307797" stroke-width="7" stroke-linecap="round" stroke-linejoin="round"/>
<path d="M54.7369 28.7059L63.1579 16.3529L54.7369 4H42.1053L33.6843 16.3529L42.1053 28.7059M54.7369 28.7059H42.1053M54.7369 28.7059L63.1579 41.0588M42.1053 28.7059L33.6843 41.0588L42.1053 53.4118M54.7369 53.4118L63.1579 65.7647M54.7369 53.4118L63.1579 41.0588M54.7369 53.4118H42.1053M8.4211 4L21.0527 16.3529M21.0527 41.0588L12.6316 49.2941M42.1053 53.4118L33.6843 61.6471M12.6316 28.7059H4.21057M63.1579 41.0588H75.7895" stroke="#307797" stroke-width="7" stroke-linecap="round" stroke-linejoin="round"/>
<path d="M25.2632 74.0001C27.5886 74.0001 29.4737 72.1565 29.4737 69.8824C29.4737 67.6083 27.5886 65.7648 25.2632 65.7648C22.9378 65.7648 21.0527 67.6083 21.0527 69.8824C21.0527 72.1565 22.9378 74.0001 25.2632 74.0001Z" fill="#307797"/>
<path d="M4.21053 61.647C6.53594 61.647 8.42105 59.8035 8.42105 57.5294C8.42105 55.2553 6.53594 53.4117 4.21053 53.4117C1.88512 53.4117 0 55.2553 0 57.5294C0 59.8035 1.88512 61.647 4.21053 61.647Z" fill="#307797"/>
<path d="M75.7894 20.4705C78.1148 20.4705 79.9999 18.627 79.9999 16.3529C79.9999 14.0788 78.1148 12.2352 75.7894 12.2352C73.464 12.2352 71.5789 14.0788 71.5789 16.3529C71.5789 18.627 73.464 20.4705 75.7894 20.4705Z" fill="#307797"/>
</svg>
