<svg width="78" height="78" viewBox="0 0 78 78" fill="none" xmlns="http://www.w3.org/2000/svg">
<path d="M39 9.83333V4M39 74V68.1667M74 39H68.1667M9.83333 39H4M59.6228 18.3772L63.7489 14.2511M14.2511 63.7489L18.3733 59.6267M63.7489 63.7489L59.6267 59.6267M18.3733 18.3733L14.2511 14.2511M54.5556 39C54.5556 43.1256 52.9167 47.0822 49.9994 49.9994C47.0822 52.9167 43.1256 54.5556 39 54.5556C34.8744 54.5556 30.9178 52.9167 28.0006 49.9994C25.0833 47.0822 23.4444 43.1256 23.4444 39C23.4444 34.8744 25.0833 30.9178 28.0006 28.0006C30.9178 25.0833 34.8744 23.4444 39 23.4444C43.1256 23.4444 47.0822 25.0833 49.9994 28.0006C52.9167 30.9178 54.5556 34.8744 54.5556 39Z" stroke="#307797" stroke-width="8" stroke-linecap="round"/>
</svg>
