<svg width="70" height="70" viewBox="0 0 70 70" fill="none" xmlns="http://www.w3.org/2000/svg">
<path d="M8.75 7H0V0H70V7H61.25V14C61.25 19.6525 57.68 24.2025 53.1825 27.9195C50.1069 30.4605 46.3662 32.802 42.5731 35C46.3662 37.198 50.1069 39.5395 53.1825 42.0805C57.68 45.7975 61.25 50.3475 61.25 56V63H70V70H0V63H8.75V56C8.75 50.3475 12.32 45.7975 16.8175 42.0805C19.8931 39.5395 23.6338 37.198 27.4269 35C23.6338 32.802 19.8931 30.4605 16.8175 27.9195C12.32 24.2025 8.75 19.6525 8.75 14V7ZM17.5 7V14C17.5 16.3975 18.6375 18.6725 20.8731 21H49.1269C51.3581 18.6725 52.5 16.3975 52.5 14V7H17.5ZM35 39.277C30.4281 41.86 26.285 44.3205 23.1044 46.949C22.3137 47.5991 21.5688 48.2838 20.8731 49H49.1269C48.4312 48.2838 47.6863 47.5991 46.8956 46.949C43.715 44.3205 39.5719 41.86 35 39.277Z" fill="#307797"/>
</svg>
